<svg width="360" height="78" viewBox="0 0 360 78" fill="none" xmlns="http://www.w3.org/2000/svg">
<rect y="24" width="360" height="10" rx="5" fill="#F0F0F0"/>
<rect y="24" width="197" height="10" rx="5" fill="#1DA599"/>
<g filter="url(#filter0_d_1_261)">
<rect x="177" y="15" width="36" height="28" rx="14" fill="white"/>
</g>
<path d="M188.324 32.11C187.77 32.11 187.294 32.0167 186.894 31.83C186.5 31.6433 186.197 31.3967 185.984 31.09C185.777 30.7833 185.667 30.4533 185.654 30.1V30.08C185.654 30.0267 185.674 29.9833 185.714 29.95C185.754 29.9167 185.804 29.9 185.864 29.9H186.794C186.947 29.9 187.047 29.9667 187.094 30.1C187.187 30.3933 187.34 30.61 187.554 30.75C187.774 30.89 188.03 30.96 188.324 30.96C188.697 30.96 189.007 30.8467 189.254 30.62C189.507 30.3933 189.634 30.0767 189.634 29.67C189.634 29.31 189.507 29.0167 189.254 28.79C189.007 28.5633 188.697 28.45 188.324 28.45C188.124 28.45 187.96 28.4767 187.834 28.53C187.707 28.5833 187.584 28.6567 187.464 28.75C187.384 28.81 187.32 28.8533 187.274 28.88C187.234 28.9 187.184 28.91 187.124 28.91H186.204C186.144 28.91 186.09 28.89 186.044 28.85C186.004 28.8033 185.984 28.75 185.984 28.69L186.334 25.27C186.34 25.19 186.367 25.1267 186.414 25.08C186.467 25.0267 186.534 25 186.614 25H190.374C190.44 25 190.497 25.0233 190.544 25.07C190.59 25.1167 190.614 25.1733 190.614 25.24V25.91C190.614 25.9767 190.59 26.0333 190.544 26.08C190.497 26.1267 190.44 26.15 190.374 26.15H187.484L187.324 27.78C187.65 27.5533 188.087 27.44 188.634 27.44C189.067 27.44 189.467 27.5333 189.834 27.72C190.207 27.9 190.504 28.1633 190.724 28.51C190.944 28.85 191.054 29.2467 191.054 29.7C191.054 30.1867 190.94 30.6133 190.714 30.98C190.487 31.34 190.167 31.62 189.754 31.82C189.347 32.0133 188.87 32.11 188.324 32.11ZM192.915 32C192.855 32 192.805 31.98 192.765 31.94C192.725 31.8933 192.705 31.84 192.705 31.78C192.705 31.76 192.712 31.73 192.725 31.69L195.135 26.19H191.995C191.928 26.19 191.872 26.1667 191.825 26.12C191.778 26.0733 191.755 26.0167 191.755 25.95V25.25C191.755 25.1767 191.775 25.1167 191.815 25.07C191.862 25.0233 191.922 25 191.995 25H196.385C196.458 25 196.515 25.0233 196.555 25.07C196.602 25.1167 196.625 25.1767 196.625 25.25V25.87C196.625 26.0033 196.595 26.1467 196.535 26.3L194.145 31.76C194.072 31.92 193.965 32 193.825 32H192.915ZM198.815 28.52C198.375 28.52 198.021 28.4033 197.755 28.17C197.495 27.9367 197.351 27.62 197.325 27.22C197.318 27.1067 197.315 26.9567 197.315 26.77C197.315 26.57 197.318 26.41 197.325 26.29C197.351 25.8767 197.491 25.55 197.745 25.31C197.998 25.07 198.355 24.95 198.815 24.95C199.275 24.95 199.631 25.07 199.885 25.31C200.145 25.55 200.285 25.8767 200.305 26.29C200.318 26.5567 200.325 26.73 200.325 26.81C200.325 26.8833 200.318 27.02 200.305 27.22C200.285 27.62 200.141 27.9367 199.875 28.17C199.615 28.4033 199.261 28.52 198.815 28.52ZM197.995 32C197.935 32 197.885 31.9833 197.845 31.95C197.805 31.91 197.785 31.86 197.785 31.8C197.785 31.76 197.798 31.7233 197.825 31.69L202.755 25.19C202.808 25.1233 202.858 25.0767 202.905 25.05C202.951 25.0167 203.015 25 203.095 25H203.625C203.691 25 203.741 25.02 203.775 25.06C203.815 25.0933 203.835 25.14 203.835 25.2C203.835 25.24 203.821 25.2767 203.795 25.31L198.865 31.81C198.811 31.8767 198.761 31.9267 198.715 31.96C198.668 31.9867 198.605 32 198.525 32H197.995ZM198.815 27.78C199.008 27.78 199.151 27.7233 199.245 27.61C199.338 27.49 199.391 27.3433 199.405 27.17C199.418 26.9433 199.425 26.8033 199.425 26.75C199.425 26.6767 199.418 26.54 199.405 26.34C199.398 26.1667 199.345 26.0233 199.245 25.91C199.151 25.79 199.008 25.73 198.815 25.73C198.621 25.73 198.478 25.79 198.385 25.91C198.291 26.0233 198.241 26.1667 198.235 26.34C198.228 26.44 198.225 26.5767 198.225 26.75C198.225 26.9167 198.228 27.0567 198.235 27.17C198.248 27.3433 198.298 27.49 198.385 27.61C198.478 27.7233 198.621 27.78 198.815 27.78ZM202.805 32.06C202.365 32.06 202.011 31.94 201.745 31.7C201.485 31.4533 201.341 31.1267 201.315 30.72C201.308 30.6067 201.305 30.4567 201.305 30.27C201.305 30.0767 201.308 29.92 201.315 29.8C201.341 29.3867 201.481 29.06 201.735 28.82C201.988 28.58 202.345 28.46 202.805 28.46C203.265 28.46 203.621 28.58 203.875 28.82C204.135 29.06 204.275 29.3867 204.295 29.8C204.308 30.0667 204.315 30.2367 204.315 30.31C204.315 30.3833 204.308 30.52 204.295 30.72C204.268 31.1267 204.121 31.4533 203.855 31.7C203.595 31.94 203.245 32.06 202.805 32.06ZM202.805 31.28C203.005 31.28 203.148 31.2233 203.235 31.11C203.328 30.99 203.381 30.8467 203.395 30.68C203.408 30.4533 203.415 30.3133 203.415 30.26C203.415 30.1867 203.408 30.05 203.395 29.85C203.388 29.6767 203.335 29.53 203.235 29.41C203.141 29.29 202.998 29.23 202.805 29.23C202.611 29.23 202.468 29.29 202.375 29.41C202.281 29.5233 202.228 29.67 202.215 29.85C202.208 29.95 202.205 30.0867 202.205 30.26C202.205 30.4267 202.208 30.5667 202.215 30.68C202.235 30.8533 202.288 30.9967 202.375 31.11C202.468 31.2233 202.611 31.28 202.805 31.28Z" fill="#1DA599"/>
<defs>
<filter id="filter0_d_1_261" x="152" y="0" width="86" height="78" filterUnits="userSpaceOnUse" color-interpolation-filters="sRGB">
<feFlood flood-opacity="0" result="BackgroundImageFix"/>
<feColorMatrix in="SourceAlpha" type="matrix" values="0 0 0 0 0 0 0 0 0 0 0 0 0 0 0 0 0 0 127 0" result="hardAlpha"/>
<feOffset dy="10"/>
<feGaussianBlur stdDeviation="12.5"/>
<feComposite in2="hardAlpha" operator="out"/>
<feColorMatrix type="matrix" values="0 0 0 0 0 0 0 0 0 0 0 0 0 0 0 0 0 0 0.15 0"/>
<feBlend mode="normal" in2="BackgroundImageFix" result="effect1_dropShadow_1_261"/>
<feBlend mode="normal" in="SourceGraphic" in2="effect1_dropShadow_1_261" result="shape"/>
</filter>
</defs>
</svg>
